<svg xmlns="http://www.w3.org/2000/svg" viewBox="0 0 512 512"><g id="图层_5" data-name="图层 5"><path d="M465.82,238.72H422c0-21.07-4.72-37.52-13.19-50.7-8.49-13.84-20.27-20.44-34.89-20.44-10.37,0-24,7.25-41,23.08-13.19,11.2-27.78,27-44.25,48.06H222c-16.73-20.74-31.14-36.32-43.72-47.4-17-15.83-30.64-23.74-40.54-23.74-15.08,0-26.87,6.6-35.35,20.44-8.47,13.18-12.72,29.63-12.73,50.7H45.82c0-38.87,8.49-70.49,25.44-95.54Q96,105.59,137.73,105.59c16,0,34.88,9.24,57.51,28.36,17.91,15.17,38.18,36.27,60.34,64,19.79-25.06,38.18-45.5,55.15-60,24.51-21.77,45.25-32.32,63.16-32.32,27.35,0,50,12.53,66.94,37.59C457.32,168.23,465.81,199.85,465.82,238.72Z"/><path d="M465.82,272.46H422c0,21.07-4.72,37.52-13.19,50.7-8.49,13.85-20.27,20.45-34.89,20.45-10.37,0-24-7.26-41-23.08-13.19-11.2-27.78-27-44.25-48.07H222c-16.73,20.74-31.14,36.33-43.72,47.4-17,15.83-30.64,23.75-40.54,23.75-15.08,0-26.87-6.6-35.35-20.45-8.47-13.18-12.72-29.63-12.73-50.7H45.82c0,38.87,8.49,70.5,25.44,95.54Q96,405.59,137.73,405.59c16,0,34.88-9.23,57.51-28.35,17.91-15.17,38.18-36.27,60.34-64,19.79,25.06,38.18,45.5,55.15,60C335.24,395,356,405.59,373.89,405.59c27.35,0,50-12.53,66.94-37.59C457.32,343,465.81,311.33,465.82,272.46Z"/></g></svg>