<svg xmlns="http://www.w3.org/2000/svg" viewBox="0 0 512 512">
<style>
    path { fill: black; }
    @media (prefers-color-scheme: dark) {
      path { fill: white; }
    }
</style>
<path d="M465.84,239.18H422c0-21.06-4.72-37.52-13.2-50.7C400.31,174.64,388.53,168,373.92,168c-10.38,0-24,7.25-41,23.08-13.18,11.2-27.77,27-44.24,48.06H222c-16.72-20.74-31.13-36.32-43.71-47.4C161.32,176,147.66,168,137.76,168c-15.09,0-26.87,6.6-35.35,20.44-8.48,13.18-12.72,29.64-12.73,50.7H45.84c0-38.87,8.49-70.49,25.45-95.54Q96,106.05,137.76,106.05c16,0,34.88,9.24,57.5,28.36,17.92,15.17,38.19,36.27,60.34,64,19.8-25.06,38.19-45.5,55.15-60,24.52-21.77,45.25-32.32,63.17-32.32,27.34,0,50,12.53,66.93,37.59C457.34,168.69,465.83,200.31,465.84,239.18Z"/><path d="M90.11,284h-44q-.24-5.43-.24-11.07H89.68Q89.68,278.69,90.11,284Z"/><path d="M93.91,305H48q-1.05-7.29-1.58-15H90.74A94.13,94.13,0,0,0,93.91,305Z"/><path d="M297.55,284H278c-6.07-5.16-13.52-7.69-22.42-7.69s-16.5,2.53-22.53,7.69H212.9q4.44-5.28,9.11-11.07h66.66Q293.2,278.74,297.55,284Z"/><path d="M207.76,290h19.81a44.12,44.12,0,0,0-2.83,4.39,54.52,54.52,0,0,0-4.8,10.61h-25.8Q200.65,298.19,207.76,290Z"/><path d="M277.7,304c.14.33.27.66.4,1h-45c.13-.35.26-.68.4-1q4.1-10.11,11.42-14h21.32Q273.6,293.9,277.7,304Z"/><path d="M316.1,305H291.3a54.52,54.52,0,0,0-4.8-10.61,46.24,46.24,0,0,0-2.88-4.39h19Q309.57,298.19,316.1,305Z"/><path d="M104,326H52.24q-1.93-7.26-3.29-15H96a70.54,70.54,0,0,0,6.42,12.62C102.91,324.44,103.43,325.23,104,326Z"/><path d="M97.52,395h74c-12.5,7.42-23.67,11.05-33.71,11.05Q115.16,406.05,97.52,395Z"/><path d="M75.19,374H150.9v15H89.28A88.13,88.13,0,0,1,75.19,374Z"/><path d="M199.54,374c-1.44,1.27-2.87,2.51-4.28,3.7q-7.55,6.38-14.54,11.3H163.38V374Z"/><polygon points="106.89 353 150.9 353 150.9 356.15 104.5 356.15 106.89 353"/><path d="M93.46,366.87H150.9V368H71a129,129,0,0,1-8.68-15H94.52l-1.06,1.39Z"/><path d="M217.49,357q-5.79,5.86-11.32,11H163.38v-1.13h18.56V356.15H163.38V353h53.43C217,354.36,217.24,355.68,217.49,357Z"/><path d="M108.76,332c.32.33.63.66,1,1L99.07,347H59.53A144.87,144.87,0,0,1,54,332Z"/><path d="M150.9,340.52V347H111.45l6.08-8a39.61,39.61,0,0,0,20.23,5.08C141.59,344.07,146,342.89,150.9,340.52Z"/><path d="M216.1,347H163.38V332.83l1.12-.83h51.17c0,1.2,0,2.43,0,3.67Q215.62,341.61,216.1,347Z"/><path d="M240.45,332q-5.82,6.75-11.43,12.85-.28-4.35-.28-9.18c0-1.25,0-2.47,0-3.67Z"/><path d="M188.25,311h30A94.26,94.26,0,0,0,216,326H172q3.09-2.64,6.34-5.68Q183.09,316.11,188.25,311Z"/><path d="M282.33,326H265.5q-4.9-5.92-9.9-12.27-5.1,6.38-10.06,12.27H229.05a86.08,86.08,0,0,1,2.21-15H280A85.42,85.42,0,0,1,282.33,326Z"/><path d="M338.52,326H295.27A94.26,94.26,0,0,0,293,311h29q5.61,5.5,10.89,10C334.82,322.77,336.69,324.45,338.52,326Z"/><path d="M339.24,395h74.83a74.81,74.81,0,0,1-40.15,11.05C363.4,406.05,351.9,402.41,339.24,395Z"/><path d="M311.05,374H381.9v15h-52A208.24,208.24,0,0,1,311.05,374Z"/><path d="M436.84,374a90.78,90.78,0,0,1-14.4,15H394.38V374Z"/><polygon points="337.89 353 381.9 353 381.9 356.15 335.5 356.15 337.89 353"/><path d="M324.46,366.87H381.9V368H304.3q-5.25-4.85-10.67-10.38c.3-1.5.57-3,.8-4.62h31.09l-1.06,1.39Z"/><path d="M449.6,353a131.93,131.93,0,0,1-8.45,15H394.38v-1.13h18.56V356.15H394.38V353Z"/><path d="M282.61,332c0,1.2.05,2.42.05,3.67q0,5.22-.36,9.88-5.81-6.42-11.81-13.55Z"/><path d="M295.57,332h45.9l-11.4,15H295.14q.48-5.38.48-11.33C295.62,334.43,295.6,333.2,295.57,332Z"/><path d="M373.92,344.07a44.12,44.12,0,0,0,8-.71V347H342.45l8.67-11.42C360,341.34,367.56,344.07,373.92,344.07Z"/><path d="M457.78,332a146.89,146.89,0,0,1-5.45,15H394.38v-8.4a38.62,38.62,0,0,0,8.07-6.6Z"/><path d="M462.75,311q-1.33,7.75-3.26,15H407.26c.52-.77,1-1.56,1.54-2.38A75.09,75.09,0,0,0,415.32,311Z"/><path d="M465.26,290q-.54,7.71-1.57,15H417.48a92.86,92.86,0,0,0,3.37-15Z"/><path d="M465.84,272.93q0,5.64-.24,11.07H421.53q.47-5.31.47-11.07Z"/>
</svg>